<svg xmlns="http://www.w3.org/2000/svg" width="600" height="240.387" viewBox="0 0 600 240.387"><path d="M283.355 0c-30.194.387-54.968 24.387-54.968 54.194s24.774 54.193 54.968 54.193S338.323 84 338.323 54.194 313.548 0 283.355 0zm0 82.452c-15.871 0-28.645-12.775-28.645-28.258s12.774-28.258 28.645-28.258S312 38.71 312 54.194s-12.774 28.258-28.645 28.258zM162.194 0C132 0 107.226 24.774 107.226 55.355v53.032h26.322V55.355c0-15.871 12.775-29.032 28.646-29.032 15.87 0 28.645 13.16 28.645 29.032v53.032h26.322V55.355C217.161 24.775 192.774 0 162.194 0zM48 56.129c0-3.484-.774-6.968-1.935-10.452L28.258 0H0l31.355 81.29C41.032 77.42 48 67.742 48 56.13zM417.678 0L375.87 108.387h27.87L445.937 0h-28.258zm-37.936 45.677L361.935 0h-28.258l31.355 81.29c10.065-3.87 16.646-13.548 16.646-25.161 0-3.484-.775-6.968-1.936-10.452zM83.613 0L14.71 178.839h28.258L111.87 0H83.613z" fill="#ef7e18"/><path d="M126.968 166.452L115.355 144H108v35.226h6.194v-25.162l10.838 21.678h4.258l10.84-21.678v25.162h6.193V144h-7.742l-11.613 22.452zm33.677 5.032h17.033l3.096 7.355h7.355l-15.097-35.226h-6.967l-15.484 35.226h6.967l3.097-7.355zm8.516-20.516l5.807 14.71h-12l6.193-14.71zm52.258 4.645c0-7.742-5.419-12-14.322-12h-14.71v35.226h6.58v-10.452h8.904l6.193 10.452v-.387h8.13l-7.742-11.613c4.645-1.936 6.967-5.807 6.967-11.226zm-14.71 7.355h-7.741v-13.161h7.742c5.032 0 7.742 2.322 7.742 6.58s-2.71 6.58-7.742 6.58zm28.646 6.968l5.42-6.194 10.838 15.097h8.13l-14.324-20.13 13.162-15.096h-7.742l-15.871 17.42v-17.42h-6.58v35.226h6.967v-8.903zm55.742 3.096h-19.742v-8.903h17.032v-5.806h-17.032v-8.516h18.968v-6.194h-25.549v35.226h26.323v-5.807zm13.935 5.807h6.58v-29.032h10.84V144h-28.258v5.807h10.838v29.032zM334.064 144h-6.58v35.226h6.58V144zm15.097 11.226l18.194 24h6.193V144h-6.58v24.387L348.774 144h-6.193v35.226h6.58v-24zm48.774-5.807c3.871 0 7.355 1.549 10.065 3.871l3.871-5.032c-3.484-3.097-8.516-5.032-13.548-5.032-10.839 0-18.968 7.742-18.968 17.806 0 10.452 8.129 18.194 18.58 18.194 5.033 0 10.452-1.936 13.936-4.645v-13.162h-6.194v9.678c-2.71 1.548-5.419 2.322-7.742 2.322-6.58 0-12-5.419-12-12s5.42-12 12-12zM134.71 224.516l-4.258-3.097c-1.162 2.323-1.936 4.258-3.097 6.194-3.097-2.71-5.032-5.032-6.968-6.968 4.258-2.322 8.516-5.032 8.516-9.677s-3.87-7.742-9.29-7.742c-5.806 0-9.29 3.484-9.29 8.129 0 2.71.774 5.032 3.096 8.129-3.87 2.322-7.354 4.645-7.354 9.677 0 5.807 5.032 10.065 11.225 10.065 3.871 0 7.355-1.548 10.452-4.258l5.42 5.419 3.483-3.87-5.42-5.42c1.162-1.936 2.71-4.258 3.485-6.58zm-15.097-16.645c2.322 0 3.871 1.548 3.871 3.484 0 2.71-2.71 4.645-5.806 6.193-1.549-2.322-2.323-3.87-2.323-5.806 0-1.935 1.548-3.871 4.258-3.871zm-1.935 26.323c-3.484 0-6.194-1.936-6.194-5.42 0-2.322 1.935-4.258 4.645-5.806 1.936 2.322 4.645 5.032 8.13 8.516-1.936 1.935-4.259 3.097-6.581 2.71zm51.483-24.387c3.484 0 6.968 1.548 9.678 5.032l3.87-5.032c-3.483-3.484-8.515-5.807-13.548-5.807-10.451 0-18.58 7.742-18.58 17.806 0 10.452 7.742 18.194 18.193 18.194 5.033 0 10.452-2.71 13.936-6.193l-3.871-4.259c-2.71 2.71-6.194 4.259-9.678 4.259-6.58 0-11.613-5.42-11.613-12 0-6.968 5.033-12 11.613-12zm34.452-6.194c-10.452 0-18.58 7.742-18.58 17.806 0 10.452 8.128 18.194 18.58 18.194 10.451 0 18.58-8.13 18.58-18.194 0-10.064-8.129-17.806-18.58-17.806zm0 29.806c-6.58 0-12-5.419-12-12s5.42-11.612 12-12c6.194 0 11.613 5.42 11.613 12s-5.033 12-11.613 12zm43.742-6.967L235.742 204h-7.355v35.226h6.194v-25.162l10.838 21.678h4.258l10.84-21.678v25.162h6.193V204h-7.742l-11.613 22.452zm47.226 0L282.968 204h-7.355v35.226h6.193v-25.162l10.84 21.678h4.257l10.839-21.678v25.162h6.194V204h-7.742l-11.613 22.452zm51.096-1.936c0 5.807-3.483 8.903-8.516 8.903-5.419 0-8.903-3.096-8.903-8.903V204h-6.58v20.516c0 9.29 5.806 15.097 15.483 15.097 9.29 0 15.097-5.806 15.097-15.097V204h-6.58v20.516zm39.097 3.871L366.581 204h-6.194v35.226h6.58v-24l18.194 24h6.194V204h-6.58v24.387zm15.097 10.839h6.58V204h-6.58v35.226zm31.355-29.42c3.484 0 6.968 1.549 9.677 5.033l3.871-5.032c-3.484-3.484-8.516-5.807-13.548-5.807-10.452 0-18.58 7.742-18.58 17.806 0 10.452 7.741 18.194 18.193 18.194 5.032 0 10.451-2.71 13.935-6.193l-3.87-4.259c-2.71 2.71-6.194 4.259-9.678 4.259-6.58 0-11.613-5.42-11.613-12 0-6.968 5.032-12 11.613-12zM461.032 204l-15.483 35.226h6.967l3.097-7.355h17.032l3.097 7.355h7.355L468 204h-6.968zm-3.097 22.065l6.194-14.71 6.194 14.71h-12.388zM480 209.807h10.839v29.032h6.58v-29.032h10.839V204H480v5.807zm33.29 29.419h6.58V204h-6.58v35.226zm31.355-35.613c-10.451 0-18.58 7.742-18.58 17.806 0 10.452 8.129 18.194 18.58 18.194s18.58-8.13 18.58-18.194c0-10.064-8.128-17.806-18.58-17.806zm0 29.806c-6.58 0-12-5.419-12-12s5.42-11.612 12-12c6.194 0 11.613 5.42 11.613 12s-5.032 12-11.613 12zM593.42 204v24.387L575.226 204h-6.194v35.226h6.581v-24l18.194 24H600V204h-6.58z"/></svg>